<svg width="200" height="200" viewBox="0 0 200 200" xmlns="http://www.w3.org/2000/svg">
  <!-- Engrenagem maior -->
  <g transform="translate(60, 80)">
    <!-- Dentes da engrenagem -->
    <path d="M40 0 L45 5 L45 15 L40 20 L35 20 L30 15 L30 5 L35 0 Z" fill="#4CAF50"/>
    <path d="M55.86 13.4 L60.86 18.4 L56.86 28.4 L51.86 33.4 L46.86 33.4 L41.86 28.4 L37.86 18.4 L42.86 13.4 Z" fill="#4CAF50" transform="rotate(30 40 40)"/>
    <path d="M65.86 35.86 L70.86 40.86 L66.86 50.86 L61.86 55.86 L56.86 55.86 L51.86 50.86 L47.86 40.86 L52.86 35.86 Z" fill="#4CAF50" transform="rotate(60 40 40)"/>
    <path d="M60 55 L65 60 L65 70 L60 75 L55 75 L50 70 L50 60 L55 55 Z" fill="#4CAF50" transform="rotate(90 40 40)"/>
    <path d="M42.14 66.6 L47.14 71.6 L43.14 81.6 L38.14 86.6 L33.14 86.6 L28.14 81.6 L24.14 71.6 L29.14 66.6 Z" fill="#4CAF50" transform="rotate(120 40 40)"/>
    <path d="M14.14 64.14 L19.14 69.14 L15.14 79.14 L10.14 84.14 L5.14 84.14 L0.14 79.14 L-3.86 69.14 L1.14 64.14 Z" fill="#4CAF50" transform="rotate(150 40 40)"/>
    <path d="M0 45 L5 50 L5 60 L0 65 L-5 65 L-10 60 L-10 50 L-5 45 Z" fill="#4CAF50" transform="rotate(180 40 40)"/>
    <path d="M17.86 26.6 L22.86 31.6 L18.86 41.6 L13.86 46.6 L8.86 46.6 L3.86 41.6 L-0.14 31.6 L4.86 26.6 Z" fill="#4CAF50" transform="rotate(210 40 40)"/>
    <path d="M34.14 15.86 L39.14 20.86 L35.14 30.86 L30.14 35.86 L25.14 35.86 L20.14 30.86 L16.14 20.86 L21.14 15.86 Z" fill="#4CAF50" transform="rotate(240 40 40)"/>
    <path d="M45 5 L50 10 L50 20 L45 25 L40 25 L35 20 L35 10 L40 5 Z" fill="#4CAF50" transform="rotate(270 40 40)"/>
    <path d="M57.86 16.6 L62.86 21.6 L58.86 31.6 L53.86 36.6 L48.86 36.6 L43.86 31.6 L39.86 21.6 L44.86 16.6 Z" fill="#4CAF50" transform="rotate(300 40 40)"/>
    <path d="M65.86 44.14 L70.86 49.14 L66.86 59.14 L61.86 64.14 L56.86 64.14 L51.86 59.14 L47.86 49.14 L52.86 44.14 Z" fill="#4CAF50" transform="rotate(330 40 40)"/>
    
    <!-- Círculo central da engrenagem maior -->
    <circle cx="40" cy="40" r="25" fill="#1565C0"/>
    
    <!-- Cruz interna -->
    <rect x="35" y="20" width="10" height="40" fill="white"/>
    <rect x="20" y="35" width="40" height="10" fill="white"/>
    <circle cx="40" cy="40" r="8" fill="white" stroke="#1565C0" stroke-width="2"/>
  </g>
  
  <!-- Engrenagem menor -->
  <g transform="translate(120, 40)">
    <!-- Dentes da engrenagem menor -->
    <path d="M25 0 L28 3 L28 9 L25 12 L22 12 L19 9 L19 3 L22 0 Z" fill="#4CAF50"/>
    <path d="M34.64 8.4 L37.64 11.4 L34.64 17.4 L31.64 20.4 L28.64 20.4 L25.64 17.4 L22.64 11.4 L25.64 8.4 Z" fill="#4CAF50" transform="rotate(45 25 25)"/>
    <path d="M37 22 L40 25 L40 31 L37 34 L34 34 L31 31 L31 25 L34 22 Z" fill="#4CAF50" transform="rotate(90 25 25)"/>
    <path d="M28.36 33.6 L31.36 36.6 L28.36 42.6 L25.36 45.6 L22.36 45.6 L19.36 42.6 L16.36 36.6 L19.36 33.6 Z" fill="#4CAF50" transform="rotate(135 25 25)"/>
    <path d="M12 31 L15 34 L15 40 L12 43 L9 43 L6 40 L6 34 L9 31 Z" fill="#4CAF50" transform="rotate(180 25 25)"/>
    <path d="M15.36 16.4 L18.36 19.4 L15.36 25.4 L12.36 28.4 L9.36 28.4 L6.36 25.4 L3.36 19.4 L6.36 16.4 Z" fill="#4CAF50" transform="rotate(225 25 25)"/>
    <path d="M13 3 L16 6 L16 12 L13 15 L10 15 L7 12 L7 6 L10 3 Z" fill="#4CAF50" transform="rotate(270 25 25)"/>
    <path d="M21.64 11.6 L24.64 14.6 L21.64 20.6 L18.64 23.6 L15.64 23.6 L12.64 20.6 L9.64 14.6 L12.64 11.6 Z" fill="#4CAF50" transform="rotate(315 25 25)"/>
    
    <!-- Círculo central da engrenagem menor -->
    <circle cx="25" cy="25" r="15" fill="#1565C0"/>
    
    <!-- Cruz interna menor -->
    <rect x="22" y="12" width="6" height="26" fill="white"/>
    <rect x="12" y="22" width="26" height="6" fill="white"/>
    <circle cx="25" cy="25" r="5" fill="white" stroke="#1565C0" stroke-width="1"/>
  </g>
  
  <!-- Texto SOROPEL -->
  <text x="100" y="160" text-anchor="middle" font-family="Arial, sans-serif" font-size="24" font-weight="bold" fill="#1565C0">SOROPEL</text>
</svg>